<svg xmlns="http://www.w3.org/2000/svg" xmlns:xlink="http://www.w3.org/1999/xlink" width="33" height="36" viewBox="0 0 33 36"><defs><path id="a" d="M5.66.5h22a5 5 0 0 1 5 5v5h-32v-5a5 5 0 0 1 5-5z"/></defs><clipPath id="b"><use xlink:href="#a" overflow="visible"/></clipPath><path clip-path="url(#b)" fill="#343437" d="M-4.34-4.5h42v20h-42z"/><defs><path id="c" d="M.66 10.5h32v20a5 5 0 0 1-5 5h-22a5 5 0 0 1-5-5v-20z"/></defs><clipPath id="d"><use xlink:href="#c" overflow="visible"/></clipPath><path clip-path="url(#d)" fill="#F4F8F9" d="M-4.34 5.5h42v35h-42z"/><defs><path id="e" d="M4 24.5h9.52v2H4z"/></defs><clipPath id="f"><use xlink:href="#e" overflow="visible"/></clipPath><path clip-path="url(#f)" fill="#929300" d="M-1 19.5h19.52v12H-1z"/><defs><path id="g" d="M4 28.5h5.81v2H4z"/></defs><clipPath id="h"><use xlink:href="#g" overflow="visible"/></clipPath><path clip-path="url(#h)" fill="#929300" d="M-1 23.5h15.81v12H-1z"/><defs><path id="i" d="M20.37.5h-7.41v18.2l3.7-1.8 3.71 1.8v-8.2z"/></defs><clipPath id="j"><use xlink:href="#i" overflow="visible"/></clipPath><path clip-path="url(#j)" fill="#929300" d="M7.96-4.5h17.41v28.2H7.96z"/></svg>