<svg xmlns="http://www.w3.org/2000/svg" xmlns:xlink="http://www.w3.org/1999/xlink" width="36.344" height="35" viewBox="0 0 36.344 35"><defs><path id="a" d="M5 0h22a5 5 0 0 1 5 5v5H0V5a5 5 0 0 1 5-5z"/></defs><clipPath id="b"><use xlink:href="#a" overflow="visible"/></clipPath><path clip-path="url(#b)" fill="#343437" d="M-5-5h42v20H-5z"/><defs><path id="c" d="M0 10h32v20a5 5 0 0 1-5 5H5a5 5 0 0 1-5-5V10z"/></defs><clipPath id="d"><use xlink:href="#c" overflow="visible"/></clipPath><path clip-path="url(#d)" fill="#F4F8F9" d="M-5 5h42v35H-5z"/><defs><path id="e" d="M3.34 24h9.52v2H3.34z"/></defs><clipPath id="f"><use xlink:href="#e" overflow="visible"/></clipPath><path clip-path="url(#f)" fill="#929300" d="M-1.66 19h19.52v12H-1.66z"/><defs><path id="g" d="M3.34 28h5.81v2H3.34z"/></defs><clipPath id="h"><use xlink:href="#g" overflow="visible"/></clipPath><path clip-path="url(#h)" fill="#929300" d="M-1.66 23h15.81v12H-1.66z"/><defs><path id="i" d="M19.71 0H12.3v18.2l3.7-1.8 3.71 1.8V10z"/></defs><clipPath id="j"><use xlink:href="#i" overflow="visible"/></clipPath><path clip-path="url(#j)" fill="#929300" d="M7.3-5h17.41v28.2H7.3z"/><defs><circle id="k" cx="28.724" cy="24.16" r="7.62"/></defs><clipPath id="l"><use xlink:href="#k" overflow="visible"/></clipPath><path clip-path="url(#l)" fill="#343437" d="M16.104 11.54h25.24v25.24h-25.24z"/><defs><path id="m" d="M24.204 24.25l3.74 3.75v-1.9h4.68v-3.7h-4.68v-1.9z"/></defs><clipPath id="n"><use xlink:href="#m" overflow="visible"/></clipPath><path clip-path="url(#n)" fill="#929300" d="M19.204 15.5h18.42V33h-18.42z"/></svg>