<svg width="101" height="566" viewBox="0 0 101 566" xmlns="http://www.w3.org/2000/svg"><title>Combined Shape</title><path d="M46.619 541.363c0 4.522-.992 8.597-2.976 12.224-1.984 3.626-4.726 6.474-8.224 8.544-3.499 2.069-7.403 3.104-11.712 3.104-4.31 0-8.214-1.035-11.712-3.104-3.499-2.07-6.24-4.918-8.224-8.544-1.984-3.627-2.976-7.702-2.976-12.224 0-4.48.992-8.534 2.976-12.16 1.984-3.627 4.714-6.464 8.192-8.512 3.477-2.048 7.392-3.072 11.744-3.072 4.352 0 8.266 1.024 11.744 3.072 3.477 2.048 6.208 4.885 8.192 8.512 1.984 3.626 2.976 7.68 2.976 12.16zm-5.696 0c0-3.286-.747-6.24-2.24-8.864a16.434 16.434 0 0 0-6.176-6.208c-2.624-1.515-5.558-2.272-8.8-2.272-3.243 0-6.176.757-8.8 2.272a16.434 16.434 0 0 0-6.176 6.208c-1.494 2.624-2.24 5.578-2.24 8.864 0 3.285.746 6.261 2.24 8.928 1.493 2.666 3.552 4.757 6.176 6.272 2.624 1.514 5.557 2.272 8.8 2.272 3.242 0 6.176-.758 8.8-2.272 2.624-1.515 4.682-3.606 6.176-6.272 1.493-2.667 2.24-5.643 2.24-8.928zm14.384-111.87v-6.4h39.232v-24.256h5.568v30.656h-44.8zm-54-131.349v-6.4h44.8v6.4h-44.8zm54-170.637l44.8 19.648v6.336l-44.8 19.712v-6.912l36.8-16.128-36.8-16.256v-6.4zM40.539.965h5.568v32.512h-44.8V1.861h5.568v25.216h13.76V4.613h5.44v22.464h14.464V.965zm59.735 62.943c0 2.952-.666 5.618-2 7.998-1.332 2.379-3.16 4.25-5.482 5.611-2.322 1.362-4.916 2.043-7.783 2.043-2.866 0-5.46-.681-7.783-2.043-2.322-1.362-4.15-3.232-5.482-5.611-1.333-2.38-2-5.046-2-7.998 0-2.953.66-5.619 1.978-7.998 1.319-2.38 3.14-4.25 5.461-5.612 2.322-1.362 4.931-2.042 7.826-2.042 2.896 0 5.504.68 7.826 2.042 2.322 1.362 4.143 3.232 5.461 5.612 1.319 2.379 1.978 5.045 1.978 7.998zm-2.02 0c0-2.523-.574-4.802-1.72-6.837a12.67 12.67 0 0 0-4.752-4.816c-2.021-1.176-4.279-1.763-6.773-1.763-2.494 0-4.751.587-6.772 1.763a12.67 12.67 0 0 0-4.752 4.816c-1.146 2.035-1.72 4.314-1.72 6.837 0 2.522.574 4.808 1.72 6.858a12.627 12.627 0 0 0 4.752 4.838c2.02 1.175 4.278 1.763 6.772 1.763 2.494 0 4.752-.588 6.773-1.763a12.627 12.627 0 0 0 4.751-4.838c1.147-2.05 1.72-4.336 1.72-6.858zM69.958 37.06v-2.193h30.1v2.193h-30.1zm0-16.268V18.6H98.08V1.271h1.978v19.522h-30.1z" fill="#D6D6D7"/></svg>