<svg xmlns="http://www.w3.org/2000/svg" xmlns:xlink="http://www.w3.org/1999/xlink" width="318.685" height="131.44" viewBox="0 0 318.685 131.44"><defs><path id="a" d="M0 0h318.685v131.44H0z"/></defs><clipPath id="b"><use xlink:href="#a" overflow="visible"/></clipPath><path clip-path="url(#b)" d="M97.015 82.217a20.536 20.536 0 0 0-4.156-.488c-11.649-.111-23.15 17.894-23.296 33.191-.063 6.657 2.21 9.879 6.434 9.919 4.161.04 9.825-3.235 14.033-8.187 6.02-7.048 9.844-18.725 9.943-29.158.04-4.16-.332-5.444-.451-6.341 2.102 1.044 5.288 2.547 5.218 9.843-.114 11.969-6.239 23.304-14.241 30.141-5.163 4.432-11.332 6.997-16.645 6.946-7.808-.074-12.048-5.235-11.956-14.9.15-15.681 11.243-37.851 23.852-37.731 1.344.013 2.494.216 3.833.805 3.187 1.375 7.253 4.614 7.432 5.96m13.254 17.47c6.249-13.899 11.518-23.064 16.299-28.102 2.012.529 6.226 3.393 6.849 4.527-7.19 7.362-12.586 15.622-17.628 26.981-4.281 9.685-6.787 17.831-7.171 23.184-.105 1.466-.11 1.53-.069 1.852-1.138-.209-2.057-.787-2.271-1.379-.159-.46-1.042-1.548-1.588-1.971-.728-.565-1.128-3.028-.931-5.768.264-3.696 2.619-10.636 6.51-19.324m11.647 9.063c.462-1.63 2.626-8.136 6.526-9.852 1.38.387 4.166 1.923 5.693 4.478-4.082 4.123-5.446 8.57-7.878 14.045-1.004 2.303-2.089 4.984-2.244 6.82-.075 1.522-.103 2.093-.483 2.075-.635-.032-4.549-1.878-4.365-5.62.072-1.459.726-4.415 2.751-11.946m10.968-16.118c-.422-.466-.693-1.433-.658-2.131.072-1.458 1.163-5.538 2.376-8.212 1.966.097 6.281 2.853 7.456 4.818-1.99 1.683-6.899 7.1-7.602 8.464-1.006-.241-1.853-1.109-1.819-1.807.013-.253.095-.631.247-1.132m1.119 25.104c.065-6.795 4.525-14.945 10.536-19.27 2.303-1.693 4.597-2.56 6.566-2.541 1.327.711 2.709 2.312 3.958 4.547.381.003.763-.057 1.143-.053 2.287.022 3.348 1.937 3.309 6.001-.101 10.606-7.49 19.617-17.672 21.679-4.821-.554-7.894-4.648-7.84-10.363m6.003 3.233c-.019 2.032.785 4.263 1.608 4.525 7.573-1.58 13.175-9.656 13.27-19.562.02-2.16-.222-3.368-.785-4.263-3.694 1.045-6.705 3.747-8.826 6.458-2.958 3.846-5.235 9.476-5.267 12.842m61.283-13.848c-.006.635-.078 1.46-.273 1.967-.887-.2-1.839-.336-2.917-.41-1.151 7.42-9.627 17.184-16.884 18.956-11.302-.362-16.267-5.871-16.153-17.746.166-17.4 14.233-33.969 29.092-33.828 5.779.056 9.247 2.692 9.205 7.137-.028 2.922-1.321 5.323-4.588 8.213-1.963-.59-3.534-2.256-3.834-4.165 2.942-2.131 3.972-3.582 3.996-6.058.018-1.905-1.243-2.934-3.466-2.955-3.746-.036-8.347 2.906-12.779 8.134-6.359 7.434-9.163 15.092-9.258 25.062-.07 7.367 3.056 12.604 7.053 13.024 5.41-1.156 11.456-9.164 12.212-15.253-2.354.485-4.582 1.036-6.487 1.017-2.541-.024-4.56-1.377-5.237-3.606 3-1.623 12.802-3.879 16.803-3.841 2.223.021 3.541 1.621 3.515 4.352m4.194.15c.412-1.644 2.38-8.212 6.226-10.044 1.391.344 4.221 1.796 5.825 4.303-3.956 4.244-5.185 8.73-7.45 14.277-.934 2.332-1.939 5.044-2.038 6.884-.029 1.524-.04 2.096-.421 2.088-.634-.012-4.603-1.739-4.532-5.485.028-1.46.593-4.434 2.39-12.023m10.477-16.442c-.436-.453-.735-1.412-.722-2.11.028-1.46.996-5.571 2.128-8.28 1.968.037 6.364 2.662 7.597 4.591-1.938 1.742-6.682 7.305-7.343 8.689-1.012-.21-1.886-1.052-1.872-1.751.005-.253.075-.632.212-1.139m17.194 26.579c.033-.952.186-1.709.396-2.274-.696-.088-5.49 6.294-6.943 7.896-1.117 1.106-2.222 1.831-2.796 1.875-2.661-.218-6.153-2.18-6.749-5.187.08-2.348.251-3.614.692-5.378 1.742-6.358 6.615-16.931 12.079-20.621 1.46.05 4.362.658 5.581 2.161-.789.799-4.445 5.504-8.561 14.387-.89 1.875-2.928 7.589-3.004 9.81a1.615 1.615 0 0 0 .405 1.158c1.287-.465 3.072-2.501 6.726-7.142 1.794-2.29 5.036-6.055 6.56-9.753.833-2.068 2.292-5.704 5.241-8.335 2.222.075 5.232 1.258 5.961 2.237-3.364 7.319-8.494 14.261-8.721 20.925-.124 3.618 1.224 5.062 1.196 5.887-.006.191-.263.246-.263.246-1.142-.039-4.023-1.282-5.945-2.682-1.541-1.387-1.905-3.75-1.855-5.21m34.832-10.256c-.506-.08-.75-.406-.795-.979.016-.508 1.091-2.38 1.123-3.396.038-1.206-.569-2.114-1.458-2.142-3.364-.106-5.342 4.217-5.597 12.341-.016.508-.02.635.04.764 1.779-.007 3.114-.029 4.447.013.059.129.057.192.047.509-.009.318-.149.695-.279.818-3.964.765-4.285.882-4.315 1.834-.02.635.023 1.271-.009 2.287-.221 7.046-4.49 11.487-11.304 11.972-2.406-.266-5.25-2.77-5.875-5.141.203-6.475 6.088-11.754 13.467-12.031.135-4.316-1.717-8.059-1.605-11.614.141-4.507 4.23-9.271 8.703-10.084 1.889.568 6.621 5.673 7.067 7.656-.292 3.232-2.324 7.234-3.657 7.193m-10.358 10.158c-3.314.341-8.947 5.692-9.039 8.612-.029.952.391 1.727 1.199 2.325 4.114-1.523 7.703-6.557 7.84-10.937m18.042-16.492c-.362-.525-.723-2.646-.677-3.793 2.225.218 4.256.491 5.974.624 2.751-4.931 6.667-10.262 8.099-10.97 1.72.069 5.744 1.571 6.534 2.56-2.677 3.083-4.369 5.504-6.616 8.988a49.71 49.71 0 0 0 5.235-.045c.367.398.658 1.111.629 1.812-2.069.682-4.7 1.023-7.633.969-4.533 7.986-7.415 16.167-7.625 21.391-.077 1.912.647 2.962 1.977 3.207 2.561-.216 4.96-1.141 6.8-2.471.178.326.354.717.407.974-1.014 1.427-5.724 4.301-7.131 4.371-4.201-.296-8.896-4.122-8.776-7.117.167-4.142 2.87-12.648 6.435-20.354l-3.632-.146zm17.354 16.732c.152-6.794 4.716-14.887 10.782-19.134 2.325-1.663 4.63-2.501 6.598-2.457 1.318.728 2.679 2.347 3.899 4.597.381.009.764-.046 1.145-.038 2.285.051 3.322 1.98 3.231 6.044-.237 10.603-7.741 19.519-17.948 21.45-4.814-.616-7.834-4.749-7.707-10.462m5.961 3.309c-.045 2.032.73 4.272 1.55 4.545 7.592-1.482 13.298-9.486 13.519-19.39.049-2.159-.178-3.371-.73-4.272-3.706.996-6.752 3.66-8.908 6.343-3.007 3.808-5.356 9.409-5.431 12.774"/><path clip-path="url(#b)" fill="#929300" d="M10.812 94.421s4.394 14.048 12.01 14.385c10.721.475 3.936-10.246 4.207-14.385.272-4.139 3.733-9.005 11.129-9.093 11.467-.135 13.978 9.093 13.978 9.093s1.628 11.4-.407 15.267c-2.036 3.868-13.775 14.762-21.239 14.404-7.464-.358-16.692-7.279-19.135-13.182-2.443-5.904-.543-16.489-.543-16.489"/><path clip-path="url(#b)" d="M23.885 45.882s.271 13.209-1.629 12.757c-1.899-.453-5.337-5.791-12.123-3.8C3.348 56.829 0 62.529 0 67.777c0 5.247 4.705 10.042 8.595 10.856 3.89.815 6.015-1.908 6.243-3.076.723-3.709-2.889-4.433-2.889-4.433s3.251 3.257.536 4.886c-2.714 1.628-5.88-.181-7.192-1.946-1.701-2.287-3.28-8.685 2.533-12.281 6.952-4.301 12.44 2.103 12.44 2.103s0 1.629-.814 3.348c-.814 1.719-6.501 13.48-7.503 15.742-1.002 2.262-8.038 16.237-1.545 29.856 3.71 7.781 10.586 11.128 10.586 11.128s2.624 1.448 8.323 1.358c5.7-.091 11.31 0 15.109-3.257 3.8-3.258 7.052-8.172 8.505-12.848 2.081-6.695 1.267-11.399 1.267-11.399l6.785-7.419s-.271-.905-1.719 0-5.157 3.528-5.157 3.528-1.809-.995-.543-3.438c1.267-2.442 3.076-5.428 4.162-8.957 1.086-3.528 2.914-7.201 1.719-6.604-3.438 1.719-7.69 9.5-7.69 9.5s-.814.452-1.629-1.538c-.814-1.991-7.871-15.924-9.409-21.714-1.538-5.79-2.064-13.529-.271-18.276 1.538-4.071 6.695-4.976 6.695-4.976s1.085-.904-.272-.995c-1.357-.09-5.79.905-5.79.905s-.452-.012-.271-.911c.18-.899.995-7.232.995-7.232s-1.267-1.085-8.957-1.085-10.766.633-10.766.633l.814 8.143s-5.391.447-5.338 3.438c.09 5.156 14.747 4.071 14.747 4.071s-10.676-.995-11.852-3.257c-1.176-2.262 1.684-2.765 5.609-2.262 7.057.905 13.209-.181 13.209-.181s1.719-.271 1.267.452c-.452.724-3.8 4.976-3.709 9.319.09 4.343 1.357 12.485 5.428 22.076 4.071 9.59 7.509 18.094 7.509 18.094s-1.085 2.805-1.176 4.252c-.09 1.448.091 2.353.091 2.353s.995-2.081 1.628-1.493c.634.588 1.312 1.448.634 2.307-.679.86-1.674 1.9-2.081 2.94-.408 1.041-.498 1.222.135 1.086.634-.136 1.765-1.131 1.9-.498.136.634.317 14.883-13.706 19.859-14.024 4.976-23.116-8.006-24.338-11.942-1.221-3.936-4.139-9.568 1.086-22.324 5.225-12.757 7.532-16.964 9.296-23.071 1.764-6.107 2.171-8.542 2.171-11.196 0-4.954-1.515-5.519-1.515-5.519"/><path clip-path="url(#b)" fill="#929300" d="M23.263 30.638s-.102 6.514.814 6.752c.916.237 2.613.475 5.497.644 2.883.17 9.397 0 9.397 0s.543.102.645-.373.509-3.189.611-4.173.509-3.087-.272-3.155c-.78-.068-.984.61-.984.61l-.542 4.445s-.441-1.764-.306-2.443c.136-.678.068-2.375-.305-2.477a.717.717 0 0 0-.848.441c-.102.306-.17 2.206-.17 2.206s-.034-2.792-.984-2.787c-.95.005-5.462.242-6.412.208-.95-.034-1.459-.034-1.595.509-.135.543-.203 2.646-.203 2.646s-.441-3.155-1.018-3.155-2.545-.281-2.816-.208-.509.31-.509.31"/><path clip-path="url(#b)" d="M18.547 124.096s-3.302-.226-3.121 2.759c.181 2.986 7.464 4.388 12.621 4.569s11.535-1.312 11.535-1.312-7.328.86-12.44.091-8.278-1.764-9.047-3.393c-.769-1.628.452-2.714.452-2.714m23.206 4.796l.362 2.307s7.509-1.809 7.509-4.659c0-4.117-6.242-4.117-6.242-4.117l-1.312.95s4.287.37 4.478 2.217c.272 2.623-4.795 3.302-4.795 3.302m-24.767-19.814s4.886 8.618 14.792 8.21c9.907-.407 14.014-9.054 14.793-11.331 3.279-9.59-.475-16.014-.475-16.014s2.035 12.666-4.343 19.61c-1.615 1.758-2.896 2.842-4.705 3.687-4.244 1.982-9.057 2.043-12.53.52-4.954-2.171-7.532-4.682-7.532-4.682"/><path clip-path="url(#b)" d="M37.614 98.108s4.992 1.725 4.297 6.107c-.294 1.855-4.568.499-5.858-3.054-.187-.517.933-.895.95-1.583.023-.882-.565-1.38-1.198-.543-.634.837-.189 2.579.07 3.427.54 1.764 3.336 4.36 5.81 3.766 2.828-.679 1.312-4.076 0-5.813-2.202-2.917-4.071-2.307-4.071-2.307m4.335-6.348s3.784 2.079 2.62 5.514c-.493 1.454-3.751-.228-4.299-3.269-.08-.443.875-.593.984-1.145.14-.707-.265-1.19-.891-.603s-.508 2.052-.416 2.771c.191 1.496 2.085 3.974 4.161 3.837 2.372-.156 1.62-3.103.803-4.684-1.372-2.654-2.962-2.421-2.962-2.421m-9.22-30.588s1.108 8.731 4.411 14.476c3.302 5.745 5.699 7.373 5.699 7.373s.588.272.634-.543c.045-.814-.453-6.649-4.026-11.716-3.574-5.066-6.243-9.59-6.243-9.59s-.187-.238-.339-.238c-.153 0-.136.238-.136.238m13.438-28.499v-5.971S67.269 5.177 100.212 7.295c56.998 3.664 61.493 39.899 61.493 39.899s-5.081-25.649-40.501-34.606c-35.421-8.957-63.271 9.635-63.271 9.635s-5.434 4.183-8.869 7.193c-2.336 2.048-2.897 3.257-2.897 3.257"/><path clip-path="url(#b)" d="M146.95 84.174c17.31-17.458 14.79-35.434 14.79-35.434s.84 11.457-7.702 24.558c0 0-1.223.891-2.173-1.077-.95-1.967-6.507-13.801-19.149-23.52-13.662-10.504-20.348-12.206-20.348-12.206h-2.624l-1.357 1.346s3.528-.458 7.147 1.171c3.619 1.628 16.962 7.414 26.78 22.525 8.686 13.367 2.895 24.084 2.895 24.084l1.741-1.447z"/><path clip-path="url(#b)" fill="#929300" d="M116.077 12.588s25.909 2.046 38.18 23.885c9.861 17.552-2.262 31.485-2.262 31.485s-1.991-3.71-4.071-5.972c-2.081-2.261-3.529-3.166-3.257-3.709.271-.543 12.485-11.852-1.363-27.651-14.788-16.872-27.227-18.038-27.227-18.038"/><path clip-path="url(#b)" d="M107.047 2.332a2.25 2.25 0 0 1-.686 1.651 2.246 2.246 0 0 1-1.647.682 2.251 2.251 0 0 1-1.65-.682 2.249 2.249 0 0 1-.683-1.651c0-.643.228-1.192.683-1.647a2.247 2.247 0 0 1 1.65-.685c.641 0 1.191.228 1.647.685.23.229.401.48.515.752.114.273.171.571.171.895M104.714.618c-.241 0-.461.042-.661.125-.199.084-.383.21-.552.379a1.71 1.71 0 0 0-.377.551 1.693 1.693 0 0 0-.124.659c0 .475.167.879.501 1.213a1.65 1.65 0 0 0 1.213.502 1.65 1.65 0 0 0 1.213-.502c.334-.334.501-.738.501-1.213 0-.472-.167-.875-.501-1.21a1.655 1.655 0 0 0-1.213-.504m4.81 3.939c-.073.12-.174.172-.304.159a.307.307 0 0 1-.265-.215.317.317 0 0 1 .029-.246l1.969-3.832c.076-.137.181-.198.315-.185.133.014.223.096.27.245l1.14 4.155c.014.042.018.085.014.127a.324.324 0 0 1-.036.12.307.307 0 0 1-.304.156.294.294 0 0 1-.267-.218l-.937-3.427-1.624 3.161zm9.548 1.202c-.07.048-.148.064-.232.048s-.15-.06-.198-.13c-.047-.071-.063-.148-.047-.232l.59-3.087-3.183 2.796a.31.31 0 0 1-.497-.175.292.292 0 0 1 0-.125l.76-3.975a.3.3 0 0 1 .13-.198.302.302 0 0 1 .232-.047c.084.016.15.059.198.13.047.07.063.147.047.231l-.591 3.093 3.18-2.796a.311.311 0 0 1 .455.062.279.279 0 0 1 .046.109.318.318 0 0 1 0 .123l-.76 3.975a.3.3 0 0 1-.13.198m7.757-1.095a2.25 2.25 0 0 1-.686 1.651 2.248 2.248 0 0 1-1.647.682 2.251 2.251 0 0 1-1.65-.682 2.249 2.249 0 0 1-.683-1.651c0-.643.228-1.192.683-1.647a2.247 2.247 0 0 1 1.65-.685c.641 0 1.191.228 1.647.685.23.229.401.48.515.752.114.273.171.571.171.895m-2.333-1.714c-.241 0-.461.042-.661.125-.199.084-.383.21-.552.379a1.71 1.71 0 0 0-.377.551 1.693 1.693 0 0 0-.124.659c0 .475.167.879.501 1.213a1.65 1.65 0 0 0 1.213.502 1.65 1.65 0 0 0 1.213-.502c.334-.334.501-.738.501-1.213 0-.472-.167-.875-.501-1.21a1.655 1.655 0 0 0-1.213-.504m10.125 7.55l-.368.819a.305.305 0 0 1-.508.083.316.316 0 0 1-.083-.216c0-.042.009-.082.027-.121l.241-.537-2.715-1.221-.241.537a.305.305 0 0 1-.174.162.345.345 0 0 1-.116.02.282.282 0 0 1-.119-.027.305.305 0 0 1-.184-.287.32.32 0 0 1 .029-.121l.368-.819a.334.334 0 0 1 .071-.101.304.304 0 0 1 .217-.083c.04 0 .084.012.132.033l2.93-2.883a.348.348 0 0 1 .182-.099.311.311 0 0 1 .178.025.266.266 0 0 1 .148.138.402.402 0 0 1 .032.179l-.21 4.107a.309.309 0 0 1 .191.292.3.3 0 0 1-.028.12m-2.816-1.606l2.045.92.16-3.087-2.205 2.167zm9.338 2.418l2.655-.685a.303.303 0 0 1 .242.031.332.332 0 0 1 .093.081.297.297 0 0 1 .058.226.317.317 0 0 1-.228.26l-2.096.541.27 2.613a.366.366 0 0 1-.051.201.276.276 0 0 1-.183.133.319.319 0 0 1-.24-.041.294.294 0 0 1-.145-.231l-.258-2.518-.563.145-.733 1.243a.306.306 0 0 1-.307.151.312.312 0 0 1-.116-.042.301.301 0 0 1-.109-.423l.733-1.243-.144-.565-2.328.996a.29.29 0 0 1-.274-.016.33.33 0 0 1-.137-.152.269.269 0 0 1 .013-.263.34.34 0 0 1 .15-.141l2.418-1.029-.541-2.096a.294.294 0 0 1 .036-.233.31.31 0 0 1 .188-.144.309.309 0 0 1 .379.232l.686 2.655.876-1.487a.303.303 0 0 1 .189-.144.306.306 0 0 1 .235.035.304.304 0 0 1 .15.307.329.329 0 0 1-.041.116l-.877 1.487zm6.126 4.544l2.503-1.158c.104-.048.206-.035.305.04a.303.303 0 0 1 .083.092.301.301 0 0 1-.021.341.32.32 0 0 1-.13.099l-3.804 1.76a1.04 1.04 0 0 1-.53.079 1.025 1.025 0 0 1-.779-.572.563.563 0 0 1-.052-.212.285.285 0 0 1 .058-.186.311.311 0 0 1 .203-.123.293.293 0 0 1 .23.061.26.26 0 0 1 .07.078c.018.031.034.061.05.092.015.031.032.062.05.093a.284.284 0 0 0 .074.081.37.37 0 0 0 .177.073.393.393 0 0 0 .204-.035l.641-.296.466-3.102a.312.312 0 0 1 .263-.275.334.334 0 0 1 .118.006c.038.01.076.028.112.055.093.07.133.164.121.281l-.412 2.728zm5.199 5.902c.031.03.054.063.069.101a.325.325 0 0 1 .006.232.31.31 0 0 1-.289.197 2.284 2.284 0 0 1-1.417-.641 2.25 2.25 0 0 1-.719-1.635 2.25 2.25 0 0 1 .651-1.663c.445-.464.99-.703 1.633-.716a2.251 2.251 0 0 1 1.665.648c.398.383.632.859.702 1.43a.287.287 0 0 1-.089.21.3.3 0 0 1-.333.076.316.316 0 0 1-.197-.278 1.676 1.676 0 0 0-.511-.992 1.662 1.662 0 0 0-1.227-.478 1.65 1.65 0 0 0-1.197.528 1.65 1.65 0 0 0-.48 1.22c.009.473.186.874.53 1.204a1.65 1.65 0 0 0 1.034.472c.061.01.117.038.169.085m5.979 2.466l-.748-.876-2.842 2.427a.302.302 0 0 1-.225.074.3.3 0 0 1-.211-.108.295.295 0 0 1-.073-.225.296.296 0 0 1 .107-.211l2.843-2.427-.748-.876a.295.295 0 0 1-.073-.225.292.292 0 0 1 .107-.21.3.3 0 0 1 .225-.074.301.301 0 0 1 .211.108l1.897 2.222c.056.065.08.14.073.225a.294.294 0 0 1-.107.21.3.3 0 0 1-.225.074.301.301 0 0 1-.211-.108m3.186 7.151a2.253 2.253 0 0 1-1.733.436 2.246 2.246 0 0 1-1.531-.914 2.244 2.244 0 0 1-.438-1.732 2.244 2.244 0 0 1 .916-1.532 2.247 2.247 0 0 1 1.729-.437 2.251 2.251 0 0 1 1.535.915c.383.514.528 1.091.434 1.73a2.338 2.338 0 0 1-.296.862 2.313 2.313 0 0 1-.616.672m-.018-2.895c-.144-.193-.309-.345-.495-.455s-.397-.182-.634-.217a1.701 1.701 0 0 0-.667.027c-.209.052-.41.15-.603.294a1.65 1.65 0 0 0-.673 1.126c-.069.468.038.892.322 1.273.283.38.659.604 1.126.673.468.068.892-.039 1.273-.322.378-.282.602-.657.671-1.125a1.653 1.653 0 0 0-.32-1.274M128.37 51.774c-1.255-2.409-3.2-2.209-3.2-2.209s.622 1.534-.803 1.565c-1.606.033-1.233-1.391-1.233-1.391s-3.211 1.357-3.686 6.14c-.475 4.784 1.764 8.347 5.767 5.564 4.004-2.782 4.593-6.911 3.155-9.669m-.712 5.372c-.35 0-.633-1.003-.633-2.239 0-1.237.283-2.239.633-2.239.35 0 .633 1.002.633 2.239 0 1.236-.283 2.239-.633 2.239"/><path clip-path="url(#b)" d="M127.491 45.93l-.1-.534c-.144.027-3.526.681-3.533 2.468l-.01 2.124c-.067.026-.109.06-.109.098 0 .08.178.145.398.145.221 0 .399-.065.399-.145 0-.044-.058-.082-.145-.109l.009-2.111c.005-1.112 2.233-1.775 3.091-1.936m-17.638-8.723c-.258.072-6.357 1.768-8.761 3.336-3.119 2.034-5.868 5.268-5.895 5.3l.016.013c-.121-.054-.229-.065-.28-.008-.082.092.012.308.209.484.197.175.422.243.504.151.056-.063.025-.185-.062-.313l.028.024c.027-.032 2.726-3.206 5.776-5.196 2.334-1.522 8.547-3.251 8.61-3.268l-.145-.523z"/><path clip-path="url(#b)" fill="#929300" d="M96.648 46.471s-.317 1.266-1.719.588c-1.521-.736-.928-1.662-.928-1.662s-4.048-1.098-7.147 3.245-3.913 6.592-3.465 11.264c.489 5.095 5.252 5.542 6.541 5.202 1.289-.339 5.874-1.275 8.731-9.88 2.262-6.812-2.013-8.757-2.013-8.757m.156 8.971c-.887 2.218-1.839 3.924-2.126 3.809-.287-.115.199-2.006 1.086-4.225.887-2.218 1.839-3.923 2.126-3.808.287.114-.199 2.006-1.086 4.224"/><path clip-path="url(#b)" d="M109.997 43.055s-3.466-1.994-7.547 1.515c-4.081 3.51-3.789 6.198-3.789 6.198s-.444 4.207.66 4.659c1.104.453 2.868.453 4.316-1.312 1.447-1.764 2.714-3.228 4.207-4.554 1.492-1.326 4.269-2.372 4.054-3.588-.085-.481-.258-.832-.475-.916-.476-.187-1.187.644-1.662.135-1.136-1.216.236-2.137.236-2.137"/><path clip-path="url(#b)" d="M118.717 39.732c-.154.017-3.801.43-5.602 1.723-1.762 1.265-2.457 2.127-2.495 2.175-.125-.043-.236-.041-.286.025-.076.101.02.301.214.448.194.147.414.184.49.083.044-.058.026-.149-.03-.243l.035.027c.007-.008.685-.851 2.388-2.074 1.686-1.21 5.309-1.62 5.345-1.624l-.059-.54zm18.45 8.763h1v5h-1z"/><path clip-path="url(#b)" d="M139.837 38.328c-1.962-.046-3.392 1.569-4.36 5.4-.845 3.343 2.122 4.776 2.122 4.776s3.484.9 4.822-3.946c.96-3.475-.623-6.184-2.584-6.23m1.915 6.069c-.268 0-.485-.635-.485-1.419s.217-1.419.485-1.419.485.635.485 1.419-.217 1.419-.485 1.419M110.95 35.23a17.113 17.113 0 0 1-2.141-4.173l-.437-1.489c.079-.063.124-.13.105-.186-.032-.1-.244-.121-.473-.046-.229.074-.388.216-.356.316.019.058.101.085.208.087l.437 1.486a17.915 17.915 0 0 0 2.21 4.314l1.189 1.721.447-.308-1.189-1.722z"/><path clip-path="url(#b)" d="M110.535 20.935c-2.616-4.876-7.283-6.899-9.567-5.858-2.285 1.04-2.692 6.152-.634 10.879 2.059 4.727 6.786 4.224 6.786 4.224s-1.493-1.668.497-2.392c2.018-.734 1.991 1.515 1.991 1.515s4.275-2.131.927-8.368m-.427 2.095c-.38.259-1.484-.7-2.466-2.141-.981-1.442-1.469-2.82-1.089-3.079.38-.259 1.484.7 2.466 2.142.981 1.441 1.469 2.819 1.089 3.078m.53 14.269c-.012-.012-1.228-1.194-4.193-2.197-3.009-1.018-6.592-1.296-6.629-1.298l.041-.542c.037.003 3.689.286 6.762 1.326 3.1 1.048 4.351 2.275 4.402 2.327l-.383.384z"/><path clip-path="url(#b)" d="M101.861 33.773s-5.959-3.95-16.748-5.163c-10.01-1.127-16.692.501-16.692.501s-.407.305.169.678c.577.374 8.516 4.682 17.541 5.056 8.072.333 15.73-1.072 15.73-1.072M87.55 40.905l-.305-.449c.051-.035 5.184-3.483 10.791-4.252 5.594-.765 11.886.624 11.949.638l-.119.53c-.062-.015-6.26-1.384-11.756-.629-5.483.751-10.51 4.128-10.56 4.162"/><path clip-path="url(#b)" d="M70.026 45.837C54.013 59.77 50.982 71.576 50.982 71.576s5.571-7.341 12.259-11.987C76.133 50.632 87.7 40.484 87.7 40.484s-7.581-3.429-17.674 5.353m-9.047 12.304s3.755-5.79 13.707-11.897c5.133-3.15 9.273-4.026 9.273-4.026s-6.469 3.573-11.264 6.559c-4.795 2.986-11.716 9.364-11.716 9.364"/><path clip-path="url(#b)" d="M77.872 54.684l-.491-.232c2.38-5.029 7.615-12.545 7.668-12.62l.445.311c-.052.075-5.262 7.553-7.622 12.541"/><path clip-path="url(#b)" d="M78.214 53.301s-4.774 3.853-6.107 7.645c-2.036 5.79.995 11.128.995 11.128s2.143-4.175 3.574-7.147c2.352-4.886 1.538-11.626 1.538-11.626m40.081-6.682l-.454-.298c.121-.183 2.979-4.491 5.595-4.993.655-.125 1.243-.007 1.754.351.863.604.644 1.727.407 2.236l-.492-.228c.019-.043.479-1.07-.226-1.564-.391-.273-.83-.359-1.34-.262-2.392.459-5.216 4.715-5.244 4.758"/><path clip-path="url(#b)" d="M118.203 46.154s-2.736-.138-6.695 2.262c-4.478 2.714-6.954 6.046-9.681 8.957-2.743 2.929-4.75 5.049-4.75 5.049s8.68-2.326 14.833-6.904c8.645-6.432 6.293-9.364 6.293-9.364m16.602-14.476c-1.274.006-2.626 1.207-3.664 5.583-1.357 5.717 0 7.807 0 7.807l.715.89-.175-.371s-.407-1.047-.195-3.978c.162-2.243.486-2.873.819-2.892.474-.028-.029 2.046-.112 3.032a30.203 30.203 0 0 0-.038 4.581l.694.864s-.442-4.216.961-9.59c.502-1.923 2.804-5.934.995-5.926"/></svg>