<svg id="Слой_1" xmlns="http://www.w3.org/2000/svg" viewBox="0 0 318.7 131.4"><style>.st0{fill:#a3a5ad}</style><path class="st0" d="M97 82.2c-1.5-.3-3-.5-4.2-.5-11.6-.1-23.2 17.9-23.3 33.2-.1 6.7 2.2 9.9 6.4 9.9s9.8-3.2 14-8.2c6-7 9.8-18.7 9.9-29.2 0-4.2-.3-5.4-.5-6.3 2.1 1 5.3 2.5 5.2 9.8-.1 12-6.2 23.3-14.2 30.1-5.2 4.4-11.3 7-16.6 6.9-7.8-.1-12-5.2-12-14.9.3-15.5 11.4-37.7 24.1-37.5 1.3 0 2.5.2 3.8.8 3.2 1.3 7.2 4.6 7.4 5.9zm13.3 17.5c6.2-13.9 11.5-23.1 16.3-28.1 2 .5 6.2 3.4 6.8 4.5-7.2 7.4-12.6 15.6-17.6 27-4.3 9.7-6.8 17.8-7.2 23.2-.1 1.5-.1 1.5-.1 1.9-1.1-.2-2.1-.8-2.3-1.4-.2-.5-1-1.5-1.6-2-.7-.6-1.1-3-.9-5.8.3-3.7 2.7-10.6 6.6-19.3zm11.6 9.1c.5-1.6 2.6-8.1 6.5-9.9 1.4.4 4.2 1.9 5.7 4.5-4.1 4.1-5.4 8.6-7.9 14-1 2.3-2.1 5-2.2 6.8-.1 1.5-.1 2.1-.5 2.1-.6 0-4.5-1.9-4.4-5.6.1-1.5.8-4.4 2.8-11.9zm11-16.2c-.4-.5-.7-1.4-.7-2.1.1-1.5 1.2-5.5 2.4-8.2 2 .1 6.3 2.9 7.5 4.8-2 1.7-6.9 7.1-7.6 8.5-1-.2-1.9-1.1-1.8-1.8-.1-.3 0-.7.2-1.2zm1.1 25.1c.1-6.8 4.5-14.9 10.5-19.3 2.3-1.7 4.6-2.6 6.6-2.5 1.3.7 2.7 2.3 4 4.5.4 0 .8-.1 1.1-.1 2.3 0 3.3 1.9 3.3 6-.1 10.6-7.5 19.6-17.7 21.7-4.8-.5-7.9-4.5-7.8-10.3zm6 3.3c0 2 .8 4.3 1.6 4.5 7.6-1.6 13.2-9.7 13.3-19.6 0-2.2-.2-3.4-.8-4.3-3.7 1-6.7 3.7-8.8 6.5-3 3.9-5.3 9.5-5.3 12.9zm61.3-13.9c0 .6-.1 1.5-.3 2-.9-.2-1.8-.3-2.9-.4-1.2 7.4-9.6 17.2-16.9 19-11.3-.4-16.3-5.9-16.2-17.7.2-17.4 14.2-34 29.1-33.8 5.8.1 9.2 2.7 9.2 7.1 0 2.9-1.3 5.3-4.6 8.2-2-.6-3.5-2.3-3.8-4.2 2.9-2.1 4-3.6 4-6.1 0-1.9-1.2-2.9-3.5-3-3.7 0-8.3 2.9-12.8 8.1-6.4 7.4-9.2 15.1-9.3 25.1-.1 7.4 3.1 12.6 7.1 13 5.4-1.2 11.5-9.2 12.2-15.3-2.4.5-4.6 1-6.5 1-2.5 0-4.6-1.4-5.2-3.6 3-1.6 12.8-3.9 16.8-3.8 2.3.1 3.6 1.7 3.6 4.4zm4.2.2c.4-1.6 2.4-8.2 6.2-10 1.4.3 4.2 1.8 5.8 4.3-4 4.2-5.2 8.7-7.5 14.3-.9 2.3-1.9 5-2 6.9 0 1.5 0 2.1-.4 2.1-.6 0-4.6-1.7-4.5-5.5 0-1.6.6-4.5 2.4-12.1zM216 90.8c-.4-.5-.7-1.4-.7-2.1 0-1.5 1-5.6 2.1-8.3 2 0 6.4 2.7 7.6 4.6-1.9 1.7-6.7 7.3-7.3 8.7-1-.2-1.9-1.1-1.9-1.8 0-.2 0-.6.2-1.1zm17.2 26.6c0-1 .2-1.7.4-2.3-.7-.1-5.5 6.3-6.9 7.9-1.1 1.1-2.2 1.8-2.8 1.9-2.7-.2-6.2-2.2-6.7-5.2.1-2.3.3-3.6.7-5.4 1.7-6.4 6.6-16.9 12.1-20.6 1.5 0 4.4.7 5.6 2.2-.8.8-4.4 5.5-8.6 14.4-.9 1.9-2.9 7.6-3 9.8 0 .6.3 1 .4 1.2 1.3-.5 3.1-2.5 6.7-7.1 1.8-2.3 5-6.1 6.6-9.8.8-2.1 2.3-5.7 5.2-8.3 2.2.1 5.2 1.3 6 2.2-3.4 7.3-8.5 14.3-8.7 20.9-.1 3.6 1.2 5.1 1.2 5.9 0 .2-.3.2-.3.2-1.1 0-4-1.3-5.9-2.7-1.7-1.4-2.1-3.7-2-5.2zm34.8-10.2c-.5-.1-.7-.4-.8-1 0-.5 1.1-2.4 1.1-3.4 0-1.2-.6-2.1-1.5-2.1-3.4-.1-5.3 4.2-5.6 12.3v.8h4.4c.1.1.1.2 0 .5 0 .3-.1.7-.3.8-4 .8-4.3.9-4.3 1.8v2.3c-.2 7-4.5 11.5-11.3 12-2.4-.3-5.3-2.8-5.9-5.1.2-6.5 6.1-11.8 13.5-12 .1-4.3-1.7-8.1-1.6-11.6.1-4.5 4.2-9.3 8.7-10.1 1.9.6 6.6 5.7 7.1 7.7-.1 3.1-2.2 7.1-3.5 7.1zm-10.4 10.1c-3.3.3-8.9 5.7-9 8.6 0 1 .4 1.7 1.2 2.3 4.1-1.5 7.7-6.5 7.8-10.9zm18.1-16.5c-.4-.5-.7-2.6-.7-3.8 2.2.2 4.3.5 6 .6 2.8-4.9 6.7-10.3 8.1-11 1.7.1 5.7 1.6 6.5 2.6-2.7 3.1-4.4 5.5-6.6 9 1.7.1 3.4.1 5.2 0 .4.4.7 1.1.6 1.8-2.1.7-4.7 1-7.6 1-4.5 8-7.4 16.2-7.6 21.4-.1 1.9.6 3 2 3.2 2.6-.2 5-1.1 6.8-2.5.2.3.4.7.4 1-1 1.4-5.7 4.3-7.1 4.4-4.2-.3-8.9-4.1-8.8-7.1.2-4.1 2.9-12.6 6.4-20.4l-3.6-.2zm17.3 16.8c.2-6.8 4.7-14.9 10.8-19.1 2.3-1.7 4.6-2.5 6.6-2.5 1.3.7 2.7 2.3 3.9 4.6h1.1c2.3.1 3.3 2 3.2 6-.2 10.6-7.7 19.5-17.9 21.5-4.8-.7-7.8-4.8-7.7-10.5zm6 3.3c0 2 .7 4.3 1.6 4.5 7.6-1.5 13.3-9.5 13.5-19.4 0-2.2-.2-3.4-.7-4.3-3.7 1-6.8 3.7-8.9 6.3-3.1 3.9-5.4 9.5-5.5 12.9zM10.8 94.4s4.4 14 12 14.4c10.7.5 3.9-10.2 4.2-14.4.3-4.1 3.7-9 11.1-9.1 11.5-.1 14 9.1 14 9.1s1.6 11.4-.4 15.3c-2 3.9-13.8 14.8-21.2 14.4s-16.7-7.3-19.1-13.2-.6-16.5-.6-16.5z"/><path class="st0" d="M23.9 45.9s.3 13.2-1.6 12.8c-1.9-.5-5.3-5.8-12.1-3.8C3.3 56.8 0 62.5 0 67.8s4.7 10 8.6 10.9c3.9.8 6-1.9 6.2-3.1.7-3.7-2.9-4.4-2.9-4.4s3.3 3.3.5 4.9-5.9-.2-7.2-1.9C3.6 71.8 2 65.4 7.8 61.8c7-4.3 12.4 2.1 12.4 2.1s0 1.6-.8 3.3C18.6 69 13 80.7 11.9 83c-1 2.3-8 16.2-1.5 29.9C14.1 120.6 21 124 21 124s2.6 1.4 8.3 1.4c5.7-.1 11.3 0 15.1-3.3 3.8-3.3 7.1-8.2 8.5-12.8 2.1-6.7 1.3-11.4 1.3-11.4l6.8-7.4s-.3-.9-1.7 0-5.2 3.5-5.2 3.5-1.8-1-.5-3.4 3.1-5.4 4.2-9 2.9-7.2 1.7-6.6c-3.4 1.7-7.7 9.5-7.7 9.5s-.8.5-1.6-1.5-7.9-15.9-9.4-21.7c-1.5-5.8-2.1-13.5-.3-18.3 1.5-4.1 6.7-5 6.7-5s1.1-.9-.3-1c-1.4-.1-5.8.9-5.8.9s-.5 0-.3-.9 1-7.2 1-7.2-1.3-1.1-9-1.1-10.8.6-10.8.6l.8 8.1s-5.4.4-5.3 3.4c.1 5.2 14.7 4.1 14.7 4.1s-10.7-1-11.9-3.3 1.7-2.8 5.6-2.3c7.1.9 13.2-.2 13.2-.2s1.7-.3 1.3.5c-.5.7-3.8 5-3.7 9.3.1 4.3 1.4 12.5 5.4 22.1s7.5 18.1 7.5 18.1-1.1 2.8-1.2 4.3c-.1 1.4.1 2.4.1 2.4s1-2.1 1.6-1.5c.6.6 1.3 1.4.6 2.3-.7.9-1.7 1.9-2.1 2.9-.4 1-.5 1.2.1 1.1.6-.1 1.8-1.1 1.9-.5.1.6.3 14.9-13.7 19.9-14 5-23.1-8-24.3-11.9-1.2-3.9-4.1-9.6 1.1-22.3s7.5-17 9.3-23.1 2.2-8.5 2.2-11.2c.2-5.1-1.3-5.6-1.3-5.6z"/><path class="st0" d="M23.3 30.6s-.1 6.5.8 6.8c.9.2 2.6.5 5.5.6 2.9.2 9.4 0 9.4 0s.5.1.6-.4c.1-.5.5-3.2.6-4.2.1-1 .5-3.1-.3-3.2-.8-.1-1 .6-1 .6l-.5 4.4s-.4-1.8-.3-2.4c.1-.7.1-2.4-.3-2.5-.4-.1-.7.1-.8.4-.1.3-.2 2.2-.2 2.2s0-2.8-1-2.8c-.9 0-5.5.2-6.4.2-.9 0-1.5 0-1.6.5-.1.5-.2 2.6-.2 2.6s-.4-3.2-1-3.2-2.5-.3-2.8-.2c-.3.4-.5.6-.5.6zm-4.8 93.5s-3.3-.2-3.1 2.8c.2 3 7.5 4.4 12.6 4.6 5.2.2 11.5-1.3 11.5-1.3s-7.3.9-12.4.1-8.3-1.8-9-3.4c-.8-1.7.4-2.8.4-2.8zm23.3 4.8l.4 2.3s7.5-1.8 7.5-4.7c0-4.1-6.2-4.1-6.2-4.1l-1.3.9s4.3.4 4.5 2.2c.1 2.7-4.9 3.4-4.9 3.4zM17 109.1s4.9 8.6 14.8 8.2 14-9.1 14.8-11.3c3.3-9.6-.5-16-.5-16s2 12.7-4.3 19.6c-1.6 1.8-2.9 2.8-4.7 3.7-4.2 2-9.1 2-12.5.5-5-2.2-7.6-4.7-7.6-4.7z"/><path class="st0" d="M37.6 98.1s5 1.7 4.3 6.1c-.3 1.9-4.6.5-5.9-3.1-.2-.5.9-.9.9-1.6 0-.9-.6-1.4-1.2-.5-.6.8-.2 2.6.1 3.4.5 1.8 3.3 4.4 5.8 3.8 2.8-.7 1.3-4.1 0-5.8-2.1-2.9-4-2.3-4-2.3zm4.3-6.3s3.8 2.1 2.6 5.5c-.5 1.5-3.8-.2-4.3-3.3-.1-.4.9-.6 1-1.1.1-.7-.3-1.2-.9-.6-.6.6-.5 2.1-.4 2.8.2 1.5 2.1 4 4.2 3.8 2.4-.2 1.6-3.1.8-4.7-1.4-2.7-3-2.4-3-2.4zm-9.2-30.6s1.1 8.7 4.4 14.5c3.3 5.7 5.7 7.4 5.7 7.4s.6.3.6-.5-.5-6.6-4-11.7c-3.6-5.1-6.2-9.6-6.2-9.6s-.2-.2-.3-.2c-.2-.2-.2.1-.2.1zm13.5-28.5v-6s21.1-21.5 54-19.4c57 3.7 61.5 39.9 61.5 39.9s-5.1-25.6-40.5-34.6-63.3 9.6-63.3 9.6-5.4 4.2-8.9 7.2c-2.3 2.1-2.8 3.3-2.8 3.3z"/><path class="st0" d="M147 84.2c17.3-17.5 14.8-35.4 14.8-35.4s.8 11.5-7.7 24.6c0 0-1.2.9-2.2-1.1-.9-2-6.5-13.8-19.1-23.5-13.7-10.5-20.3-12.2-20.3-12.2h-2.6l-1.4 1.3s3.5-.5 7.1 1.2c3.6 1.6 17 7.4 26.8 22.5 8.7 13.4 2.9 24.1 2.9 24.1l1.7-1.5z"/><path class="st0" d="M116.1 12.6s25.9 2 38.2 23.9C164.1 54 152 68 152 68s-2-3.7-4.1-6c-2.1-2.3-3.5-3.2-3.3-3.7s12.5-11.9-1.4-27.7c-14.7-16.8-27.1-18-27.1-18zM107 2.3c0 .6-.2 1.2-.7 1.7-.5.5-1 .7-1.6.7-.6 0-1.2-.2-1.7-.7s-.7-1-.7-1.7c0-.6.2-1.2.7-1.6.5-.5 1-.7 1.7-.7.6 0 1.2.2 1.6.7.2.2.4.5.5.8.2.2.2.5.2.8zM104.7.6c-.2 0-.5 0-.7.1-.2.1-.4.2-.6.4s-.3.4-.4.6v.6c0 .5.2.9.5 1.2.3.3.7.5 1.2.5s.9-.2 1.2-.5c.3-.3.5-.7.5-1.2s-.2-.9-.5-1.2c-.3-.3-.7-.5-1.2-.5zm4.8 4c-.1.1-.2.2-.3.2h-.1s-.1 0-.1-.1c0 0 0-.1-.1-.1v-.2l2-3.8c.1-.1.2-.2.3-.2.1 0 .2.1.3.2l1.1 4.2V5s0 .1-.1.1c0 0-.1 0-.1.1h-.1c-.1 0-.2-.1-.3-.2l-.9-3.4-1.6 3zm9.6 1.2c-.1 0-.1.1-.2 0-.1 0-.2-.1-.2-.1s-.1-.1 0-.2l.6-3.1-3.3 2.8c-.1.1-.2.1-.3.1h-.1l-.1-.1V5l.8-4c0-.1.1-.2.1-.2.1 0 .1-.1.2 0 .1 0 .2.1.2.1s.1.1 0 .2l-.6 3.1 3.2-2.8c.1-.1.2-.1.3-.1h.1s.1 0 .1.1v.2l-.8 4c.1 0 0 .1 0 .2zm7.7-1.1c0 .6-.2 1.2-.7 1.7-.5.5-1 .7-1.6.7-.6 0-1.2-.2-1.7-.7-.5-.5-.7-1-.7-1.7 0-.6.2-1.2.7-1.6.5-.5 1-.7 1.7-.7.6 0 1.2.2 1.6.7.2.2.4.5.5.8.2.1.2.4.2.8zM124.5 3c-.2 0-.5 0-.7.1-.2.1-.4.2-.6.4-.2.2-.3.4-.4.6-.1.2-.1.4-.1.7 0 .5.2.9.5 1.2.3.3.7.5 1.2.5s.9-.2 1.2-.5c.3-.3.5-.7.5-1.2s-.2-.9-.5-1.2c-.2-.5-.6-.6-1.1-.6zm10.1 7.5l-.4.8s0 .1-.1.1-.1 0-.1.1h-.2s-.1 0-.1-.1c0 0 0-.1-.1-.1v-.2l.2-.5-2.7-1.2-.1.4s0 .1-.1.1c0 0-.1 0-.1.1h-.2s-.1 0-.1-.1 0-.1-.1-.1v-.2l.4-.8s0-.1.1-.1c0 0 .1 0 .1-.1h.2l2.9-2.9c.1-.1.1-.1.2-.1h.2c.1 0 .1.1.1.1v.2l-.2 4.1s.1 0 .1.1c0 0 0 .1.1.1v.3zm-2.8-1.6l2 .9.2-3.1-2.2 2.2zm9.3 2.4l2.7-.7h.2s.1 0 .1.1c0 0 0 .1.1.1v.2c0 .1-.1.1-.2.1l-2.1.5.3 2.6c0 .1 0 .1-.1.2 0 .1-.1.1-.2.1h-.2c-.1-.1-.1-.1-.1-.2l-.3-2.5-.6.1-.7 1.2-.1.1s-.1 0-.1.1h-.2l-.1-.1s0-.1-.1-.1v-.2l.7-1.2-.1-.6-2.3 1h-.3c-.1 0-.1-.1-.1-.2v-.3c0-.1.1-.1.2-.1l2.4-1-.5-2.1v-.2s0-.1.1-.1c0 0 .1 0 .1-.1h.2c.1 0 .1.1.1.2l.7 2.7.9-1.5s0-.1.1-.1c0 0 .1 0 .1-.1h.2s.1 0 .1.1c0 0 0 .1.1.1v.2l-1 1.7zm6.2 4.6l2.5-1.2h.3l.1.1v.2s0 .1-.1.1l-.1.1-3.8 1.8c-.2.1-.4.1-.5.1-.2 0-.3-.1-.5-.2-.1 0-.1-.1-.2-.2s-.1-.1-.1-.2 0-.1-.1-.2c0-.1 0-.1.1-.2l.1-.1h.2s.1 0 .1.1c0 0 .1 0 .1.1v.1s0 .1.1.1c0 0 0 .1.1.1s.1.1.2.1h.2l.6-.3.5-3.1c0-.1 0-.1.1-.2l.1-.1h.2s.1 0 .1.1c.1.1.1.2.1.3l-.4 2.6zm5.2 5.9l.1.1v.2s0 .1-.1.1c-.1.1-.1.1-.2.1-.6-.1-1-.3-1.4-.6-.5-.4-.7-1-.7-1.6s.2-1.2.7-1.7c.4-.5 1-.7 1.6-.7.6 0 1.2.2 1.7.6.4.4.6.9.7 1.4 0 .1 0 .1-.1.2l-.1.1h-.2s-.1 0-.1-.1c-.1-.1-.1-.1-.1-.2 0-.2-.1-.4-.2-.5-.1-.2-.2-.3-.3-.5-.3-.3-.8-.5-1.2-.5-.5 0-.9.2-1.2.5-.3.3-.5.8-.5 1.2 0 .5.2.9.5 1.2.3.3.6.4 1 .5 0 .1 0 .1.1.2zm5.9 2.4l-.7-.9-2.8 2.4c-.1.1-.1.1-.2.1s-.2 0-.2-.1c-.1-.1-.1-.1-.1-.2s0-.2.1-.2l2.8-2.4-.7-.9c-.1-.1-.1-.1-.1-.2s0-.2.1-.2.1-.1.2-.1.2 0 .2.1l1.9 2.2c.1.1.1.2.1.2 0 .1 0 .2-.1.2-.1.1-.1.1-.2.1s-.2 0-.3-.1zm3.2 7.2c-.5.4-1.1.5-1.7.4-.6-.1-1.1-.4-1.5-.9-.4-.5-.5-1.1-.4-1.7.1-.6.4-1.1.9-1.5.5-.4 1.1-.5 1.7-.4.6.1 1.2.4 1.5.9.4.5.5 1.1.4 1.7 0 .3-.1.6-.3.9-.1.2-.3.4-.6.6zm0-2.9c-.1-.2-.3-.3-.5-.5-.2-.1-.4-.2-.6-.2h-.7l-.6.3c-.4.3-.6.7-.7 1.1s0 .9.3 1.3.7.6 1.1.7.9 0 1.3-.3.6-.7.7-1.1c.1-.5 0-.9-.3-1.3zm-33.2 23.3c-1.3-2.4-3.2-2.2-3.2-2.2s.6 1.5-.8 1.6c-1.6 0-1.2-1.4-1.2-1.4s-3.2 1.4-3.7 6.1 1.8 8.3 5.8 5.6c3.9-2.8 4.5-7 3.1-9.7zm-.7 5.3c-.3 0-.6-1-.6-2.2s.3-2.2.6-2.2.6 1 .6 2.2-.3 2.2-.6 2.2z"/><path class="st0" d="M127.5 45.9l-.1-.5c-.1 0-3.5.7-3.5 2.5V50c-.1 0-.1.1-.1.1 0 .1.2.1.4.1s.4-.1.4-.1l-.1-.1v-2.1c-.1-1.1 2.1-1.8 3-2zm-17.6-8.7c-.3.1-6.4 1.8-8.8 3.3-3.1 2-5.9 5.3-5.9 5.3-.1-.1-.2-.1-.3 0-.1.1 0 .3.2.5s.4.2.5.2c.1-.1 0-.2-.1-.3 0 0 2.7-3.2 5.8-5.2 2.3-1.5 8.5-3.3 8.6-3.3v-.5z"/><path class="st0" d="M96.6 46.5s-.3 1.3-1.7.6c-1.5-.7-.9-1.7-.9-1.7s-4-1.1-7.1 3.2c-3.1 4.3-3.9 6.6-3.5 11.3.5 5.1 5.3 5.5 6.5 5.2s5.9-1.3 8.7-9.9c2.3-6.8-2-8.7-2-8.7zm.2 8.9c-.9 2.2-1.8 3.9-2.1 3.8-.3-.1.2-2 1.1-4.2.9-2.2 1.8-3.9 2.1-3.8.3.1-.2 2-1.1 4.2z"/><path class="st0" d="M110 43.1s-3.5-2-7.5 1.5c-4.1 3.5-3.8 6.2-3.8 6.2s-.4 4.2.7 4.7 2.9.5 4.3-1.3 2.7-3.2 4.2-4.6c1.5-1.3 4.3-2.4 4.1-3.6-.1-.5-.3-.8-.5-.9-.5-.2-1.2.6-1.7.1-1.2-1.2.2-2.1.2-2.1z"/><path class="st0" d="M118.7 39.7c-.2 0-3.8.4-5.6 1.7-1.8 1.3-2.5 2.1-2.5 2.2h-.3c-.1.1 0 .3.2.4.2.1.4.2.5.1v-.2s.7-.9 2.4-2.1c1.7-1.2 5.3-1.6 5.3-1.6v-.5zm18.5 8.8h1v5h-1z"/><path class="st0" d="M139.8 38.3c-2 0-3.4 1.6-4.4 5.4-.8 3.3 2.1 4.8 2.1 4.8s3.5.9 4.8-3.9c1.1-3.5-.5-6.2-2.5-6.3zm2 6.1c-.3 0-.5-.6-.5-1.4s.2-1.4.5-1.4.5.6.5 1.4-.3 1.4-.5 1.4zM111 35.2c-.9-1.4-1.6-2.6-2.1-4.2l-.4-1.5c.1-.1.1-.1.1-.2s-.2-.1-.5 0c-.2.1-.4.2-.4.3 0 .1.1.1.2.1l.4 1.5c.6 1.6 1.2 2.9 2.2 4.3l1.2 1.7.4-.3-1.1-1.7z"/><path class="st0" d="M110.5 20.9c-2.6-4.9-7.3-6.9-9.6-5.9s-2.7 6.2-.6 10.9 6.8 4.2 6.8 4.2-1.5-1.7.5-2.4 2 1.5 2 1.5 4.3-2 .9-8.3zm-.4 2.1c-.4.3-1.5-.7-2.5-2.1-1-1.4-1.5-2.8-1.1-3.1.4-.3 1.5.7 2.5 2.1 1 1.5 1.5 2.9 1.1 3.1zm.5 14.3s-1.2-1.2-4.2-2.2c-3-1-6.6-1.3-6.6-1.3v-.5s3.7.3 6.8 1.3c3.1 1 4.4 2.3 4.4 2.3l-.4.4z"/><path class="st0" d="M101.9 33.8s-6-3.9-16.7-5.2c-10-1.1-16.7.5-16.7.5s-.4.3.2.7c.6.4 8.5 4.7 17.5 5.1 8 .3 15.7-1.1 15.7-1.1zm-14.4 7.1l-.3-.4c.1 0 5.2-3.5 10.8-4.3 5.6-.8 11.9.6 11.9.6l-.1.5c-.1 0-6.3-1.4-11.8-.6-5.4.8-10.4 4.2-10.5 4.2z"/><path class="st0" d="M70 45.8c-16 14-19 25.8-19 25.8s5.6-7.3 12.3-12c12.9-9 24.5-19.1 24.5-19.1s-7.7-3.4-17.8 5.3zm-9 12.3s3.8-5.8 13.7-11.9c5.1-3.2 9.3-4 9.3-4s-6.5 3.6-11.3 6.6c-4.8 3-11.7 9.3-11.7 9.3z"/><path class="st0" d="M77.9 54.7l-.5-.2c2.4-5 7.6-12.5 7.7-12.6l.4.3c-.1 0-5.3 7.5-7.6 12.5z"/><path class="st0" d="M78.2 53.3s-4.8 3.9-6.1 7.6c-2 5.8 1 11.1 1 11.1s2.1-4.2 3.6-7.1c2.3-4.9 1.5-11.6 1.5-11.6zm40.1-6.7l-.5-.3c.1-.2 3-4.5 5.6-5 .7-.1 1.2 0 1.8.4.9.6.6 1.7.4 2.2l-.5-.2s.5-1.1-.2-1.6c-.4-.3-.8-.4-1.3-.3-2.5.5-5.3 4.8-5.3 4.8z"/><path class="st0" d="M118.2 46.2s-2.7-.1-6.7 2.3c-4.5 2.7-7 6-9.7 9-2.7 2.9-4.7 5-4.7 5s8.7-2.3 14.8-6.9c8.7-6.5 6.3-9.4 6.3-9.4zm16.6-14.5c-1.3 0-2.6 1.2-3.7 5.6-1.4 5.7 0 7.8 0 7.8l.7.9-.2-.4s-.4-1-.2-4c.2-2.2.5-2.9.8-2.9.5 0 0 2-.1 3-.2 2.1-.1 3.9 0 4.6l.7.9s-.4-4.2 1-9.6c.5-1.9 2.8-5.9 1-5.9z"/></svg>