<svg xmlns="http://www.w3.org/2000/svg" xmlns:xlink="http://www.w3.org/1999/xlink" width="36.48" height="31" viewBox="0 0 36.48 31"><defs><path id="a" d="M5 0h25a5 5 0 0 1 5 5v21a5 5 0 0 1-5 5H5a5 5 0 0 1-5-5V5a5 5 0 0 1 5-5z"/></defs><clipPath id="b"><use xlink:href="#a" overflow="visible"/></clipPath><path clip-path="url(#b)" fill="#343437" d="M-5-5h45v41H-5z"/><defs><path id="c" d="M5 2h25a5 5 0 0 1 5 5v19a5 5 0 0 1-5 5H5a5 5 0 0 1-5-5V7a5 5 0 0 1 5-5z"/></defs><clipPath id="d"><use xlink:href="#c" overflow="visible"/></clipPath><path clip-path="url(#d)" fill="#F4F8F9" d="M-5-3h45v39H-5z"/><defs><path id="e" d="M26.3 12.5h9.25a.93.93 0 0 1 .93.93v6.14a.93.93 0 0 1-.93.93H26.3a4 4 0 0 1 0-8z"/></defs><clipPath id="f"><use xlink:href="#e" overflow="visible"/></clipPath><path clip-path="url(#f)" fill="#929300" d="M17.3 7.5h24.18v18H17.3z"/><defs><circle id="g" cx="26.22" cy="16.5" r="1.73"/></defs><clipPath id="h"><use xlink:href="#g" overflow="visible"/></clipPath><path clip-path="url(#h)" fill="#FFF" d="M19.49 9.77h13.46v13.46H19.49z"/></svg>