<svg xmlns="http://www.w3.org/2000/svg" xmlns:xlink="http://www.w3.org/1999/xlink" width="38.63" height="29.62" viewBox="0 0 38.63 29.62"><defs><path id="a" d="M5 3.62h25a5 5 0 0 1 5 5v16a5 5 0 0 1-5 5H5a5 5 0 0 1-5-5v-16a5 5 0 0 1 5-5z"/></defs><clipPath id="b"><use xlink:href="#a" overflow="visible"/></clipPath><path clip-path="url(#b)" fill="#F4F8F9" d="M-5-1.38h45v36H-5z"/><defs><path id="c" d="M0 10.62h35v4H0z"/></defs><clipPath id="d"><use xlink:href="#c" overflow="visible"/></clipPath><path clip-path="url(#d)" fill="#929300" d="M-5 5.62h45v14H-5z"/><defs><path id="e" d="M4 23.62h8v2H4z"/></defs><clipPath id="f"><use xlink:href="#e" overflow="visible"/></clipPath><path clip-path="url(#f)" fill="#929300" d="M-1 18.62h18v12H-1z"/><defs><path id="g" d="M15 23.62h6v2h-6z"/></defs><clipPath id="h"><use xlink:href="#g" overflow="visible"/></clipPath><path clip-path="url(#h)" fill="#929300" d="M10 18.62h16v12H10z"/><defs><path id="i" d="M24 23.62h7v2h-7z"/></defs><clipPath id="j"><use xlink:href="#i" overflow="visible"/></clipPath><path clip-path="url(#j)" fill="#929300" d="M19 18.62h17v12H19z"/><defs><path id="k" d="M38.63 7.62A7.629 7.629 0 1 1 31 0a7.64 7.64 0 0 1 7.63 7.62z"/></defs><clipPath id="l"><use xlink:href="#k" overflow="visible"/></clipPath><path clip-path="url(#l)" fill="#343437" d="M18.37-5h25.26v25.26H18.37z"/><defs><path id="m" d="M32.46 7.39h-2.88V5.66c0-.69.56-1.25 1.25-1.25h.34a1.249 1.249 0 0 1 1.29 1.25v1.73zm1 0V5.66a2.25 2.25 0 0 0-2.25-2.25h-.34a2.25 2.25 0 0 0-2.25 2.25v1.73h-1.37v4.42h7.51V7.39h-1.3z"/></defs><clipPath id="n"><use xlink:href="#m" overflow="visible"/></clipPath><path clip-path="url(#n)" fill="#FFF" d="M22.25-1.59h17.51v18.4H22.25z"/></svg>